#!OML:ASF H:\Punching\Project 1\Capture day 1\Session 1\female.ASF
:FULLY-SPECIFIED
:DEGREES
1782
root -1.88241 15.4307 9.43195 11.9019 -9.63551 -2.60187
lowerback -1.17238 0.0658934 6.23337
upperback -5.20809 0.185009 0.188024
thorax -4.73567 -0.173958 -3.30051
lowerneck -8.16252 4.68007 10.4267
upperneck 32.8414 6.30726 -5.53888
head 12.8088 3.38403 -3.12904
rclavicle -7.08209e-015 -2.17669e-014
rhumerus -7.84706 18.7034 -72.9593
rradius 124.613
rwrist -18.3589
rhand -20.4179 -2.19819
rfingers 7.12502
rthumb 5.93634 -32.095
lclavicle -7.08209e-015 -2.17669e-014
lhumerus -40.4807 -17.2137 54.4423
lradius 122.077
lwrist 0.270246
lhand -26.2323 10.9062
lfingers 7.12502
lthumb 0.32134 40.8857
rfemur -2.98568 4.83956 19.6423
rtibia 18.1858
rfoot -21.7872 -16.6507
rtoes -6.83245
lfemur -36.4257 -3.03576 -2.30333
ltibia 27.507
lfoot -6.38304 15.0922
ltoes -9.31405
1783
root -1.83606 15.4275 9.51692 12.1331 -10.1537 -2.66173
lowerback -1.12596 0.12201 6.2605
upperback -5.22237 0.263117 0.165477
thorax -4.76923 -0.13831 -3.34163
lowerneck -8.11837 4.74489 10.5565
upperneck 32.7058 6.37896 -5.56831
head 12.7572 3.42569 -3.15112
rclavicle 2.02263e-014 6.16232e-015
rhumerus -7.47856 19.0648 -73.0897
rradius 125.012
rwrist -18.2172
rhand -20.3961 -2.10109
rfingers 7.12502
rthumb 5.95744 -31.9973
lclavicle 2.02263e-014 6.16232e-015
lhumerus -40.4821 -17.3053 54.3187
lradius 122.133
lwrist -0.437887
lhand -26.7219 10.6589
lfingers 7.12502
lthumb -0.151442 40.6385
rfemur -2.58032 5.02369 19.3433
rtibia 17.3189
rfoot -21.5324 -16.3699
rtoes -7.28268
lfemur -36.4306 -3.83668 -1.44243
ltibia 25.6786
lfoot -5.43795 15.6797
ltoes -8.5917
1784
root -1.78718 15.423 9.60346 12.3717 -10.6825 -2.73369
lowerback -1.07228 0.172841 6.29482
upperback -5.23905 0.334965 0.144186
thorax -4.81008 -0.106377 -3.38543
lowerneck -8.1021 4.82052 10.7264
upperneck 32.5825 6.46408 -5.62453
head 12.7214 3.47453 -3.1885
rclavicle 1.19434e-014 1.49089e-016
rhumerus -7.15802 19.4326 -73.2406
rradius 125.412
rwrist -18.1002
rhand -20.3644 -1.97836
rfingers 7.12502
rthumb 5.98802 -31.8737
lclavicle 1.19434e-014 1.49089e-016
lhumerus -40.4993 -17.4089 54.2279
lradius 122.131
lwrist -1.13924
lhand -27.2351 10.5051
lfingers 7.12502
lthumb -0.647131 40.4839
rfemur -2.16436 5.19933 19.0357
rtibia 16.4146
rfoot -21.2648 -16.068
rtoes -7.75673
lfemur -36.4661 -4.64206 -0.559265
ltibia 24.0708
lfoot -4.6325 16.2227
ltoes -7.81741
1785
root -1.73579 15.4166 9.69123 12.6197 -11.224 -2.82914
lowerback -1.00502 0.219529 6.34477
upperback -5.25889 0.402902 0.127774
thorax -4.86246 -0.0774302 -3.43298
lowerneck -8.08907 4.90158 10.9066
upperneck 32.4547 6.55581 -5.68555
head 12.6862 3.5267 -3.22837
rclavicle -2.64089e-015 5.1684e-015
rhumerus -6.87643 19.8109 -73.4134
rradius 125.812
rwrist -17.9897
rhand -20.3407 -1.89725
rfingers 7.12502
rthumb 6.01085 -31.792
lclavicle -2.64089e-015 5.1684e-015
lhumerus -40.5342 -17.5199 54.1742
lradius 122.073
lwrist -1.82892
lhand -27.7733 10.4414
lfingers 7.12502
lthumb -1.16693 40.4179
rfemur -1.74732 5.37847 18.7324
rtibia 15.486
rfoot -20.982 -15.7569
rtoes -8.26614
lfemur -36.5419 -5.41692 0.331331
ltibia 22.7129
lfoot -3.95137 16.7631
ltoes -6.95325
1786
root -1.68174 15.4082 9.77982 12.8785 -11.7704 -2.9347
lowerback -0.920648 0.257221 6.39416
upperback -5.28055 0.460326 0.113761
thorax -4.92758 -0.0541402 -3.47765
lowerneck -8.08571 4.98876 11.0895
upperneck 32.3169 6.65232 -5.74082
head 12.6497 3.58155 -3.26529
rclavicle 2.19669e-014 1.15792e-014
rhumerus -6.62405 20.1998 -73.6166
rradius 126.208
rwrist -17.8424
rhand -20.3728 -1.81658
rfingers 7.12502
rthumb 5.97989 -31.7122
lclavicle 2.19669e-014 1.15792e-014
lhumerus -40.6043 -17.6167 54.165
lradius 121.971
lwrist -2.51216
lhand -28.334 10.3628
lfingers 7.12502
lthumb -1.70846 40.3357
rfemur -1.33559 5.55831 18.4196
rtibia 14.542
rfoot -20.6918 -15.4427
rtoes -8.80525
lfemur -36.6729 -6.08663 1.15637
ltibia 21.6294
lfoot -3.30309 17.2888
ltoes -6.10208
1787
root -1.62516 15.3973 9.86928 13.1453 -12.325 -3.05949
lowerback -0.818941 0.286583 6.44725
upperback -5.29752 0.50816 0.105269
thorax -4.99864 -0.0357866 -3.51858
lowerneck -8.09539 5.08299 11.2836
upperneck 32.1628 6.75633 -5.802
head 12.6113 3.63974 -3.30469
rclavicle -2.10345e-014 1.81639e-014
rhumerus -6.39086 20.5966 -73.8512
rradius 126.592
rwrist -17.6263
rhand -20.4531 -1.75984
rfingers 7.12502
rthumb 5.90237 -31.6576
lclavicle -2.10345e-014 1.81639e-014
lhumerus -40.7022 -17.6916 54.2031
lradius 121.825
lwrist -3.17677
lhand -28.9027 10.2557
lfingers 7.12502
lthumb -2.25776 40.2235
rfemur -0.926782 5.75695 18.1089
rtibia 13.5862
rfoot -20.3951 -15.1371
rtoes -9.35478
lfemur -36.8548 -6.58821 1.8779
ltibia 20.8363
lfoot -2.62259 17.7855
ltoes -5.26678
1788
root -1.56569 15.3842 9.95972 13.4217 -12.8734 -3.19705
lowerback -0.705853 0.304542 6.50562
upperback -5.30683 0.541676 0.0985479
thorax -5.06967 -0.0246194 -3.56035
lowerneck -8.13117 5.18645 11.5008
upperneck 31.9947 6.86852 -5.87374
head 12.5755 3.70224 -3.35007
rclavicle 1.77885e-014 1.043e-014
rhumerus -6.17558 20.9904 -74.1189
rradius 126.952
rwrist -17.3059
rhand -20.6254 -1.63942
rfingers 7.12502
rthumb 5.736 -31.5418
lclavicle 1.77885e-014 1.043e-014
lhumerus -40.8213 -17.7441 54.2955
lradius 121.642
lwrist -3.81488
lhand -29.475 10.0989
lfingers 7.12502
lthumb -2.81044 40.0601
rfemur -0.52041 5.95658 17.7941
rtibia 12.621
rfoot -20.0983 -14.8395
rtoes -9.91768
lfemur -37.0971 -6.87839 2.44339
ltibia 20.3422
lfoot -1.8317 18.2071
ltoes -4.44392
1789
root -1.50351 15.3688 10.0516 13.7023 -13.4177 -3.34376
lowerback -0.581029 0.310363 6.5646
upperback -5.30947 0.559931 0.0949431
thorax -5.14205 -0.0209293 -3.59885
lowerneck -8.17476 5.29835 11.7311
upperneck 31.8022 6.98977 -5.95107
head 12.5338 3.76903 -3.39774
rclavicle 1.75396e-014 2.9122e-014
rhumerus -5.98673 21.3858 -74.4139
rradius 127.288
rwrist -16.8558
rhand -20.8502 -1.48984
rfingers 7.12502
rthumb 5.51894 -31.398
lclavicle 1.75396e-014 2.9122e-014
lhumerus -40.9485 -17.7857 54.449
lradius 121.413
lwrist -4.39995
lhand -30.0375 9.96792
lfingers 7.12502
lthumb -3.35367 39.9213
rfemur -0.112753 6.15598 17.4717
rtibia 11.6512
rfoot -19.8065 -14.5492
rtoes -10.4862
lfemur -37.392 -6.92287 2.81661
ltibia 20.1509
lfoot -0.913116 18.4849
ltoes -3.38126
1790
root -1.43833 15.351 10.1452 13.9831 -13.952 -3.49576
lowerback -0.454489 0.302094 6.62612
upperback -5.29697 0.559241 0.0930759
thorax -5.20154 -0.0259699 -3.63626
lowerneck -8.2279 5.42058 11.9778
upperneck 31.577 7.1227 -6.03753
head 12.4838 3.84107 -3.44897
rclavicle -3.46817e-014 3.03147e-015
rhumerus -5.8225 21.7718 -74.7319
rradius 127.589
rwrist -16.2817
rhand -21.1215 -1.2173
rfingers 7.12502
rthumb 5.25703 -31.1321
lclavicle -3.46817e-014 3.03147e-015
lhumerus -41.0768 -17.8128 54.6717
lradius 121.138
lwrist -4.92447
lhand -30.6052 9.86204
lfingers 7.12502
lthumb -3.90185 39.8061
rfemur 0.294456 6.34467 17.1383
rtibia 10.693
rfoot -19.5283 -14.267
rtoes -11.0693
lfemur -37.735 -6.69398 2.95864
ltibia 20.2689
lfoot 0.130812 18.484
ltoes -2.17213
